<?xml version="1.0" encoding="utf-8"?>
<!-- Generator: Adobe Illustrator 16.0.4, SVG Export Plug-In . SVG Version: 6.00 Build 0)  -->
<!DOCTYPE svg PUBLIC "-//W3C//DTD SVG 1.1//EN" "http://www.w3.org/Graphics/SVG/1.1/DTD/svg11.dtd">
<svg version="1.1" xmlns="http://www.w3.org/2000/svg" xmlns:xlink="http://www.w3.org/1999/xlink" x="0px" y="0px" width="1792px"
	 height="1792px" viewBox="0 0 1792 1792" enable-background="new 0 0 1792 1792" xml:space="preserve">
<g id="Guide">
</g>
<g id="_x31_1._leaf-p">
</g>
<g id="_x31_0._leaf-h">
</g>
<g id="_x39_._maple">
	<polygon points="1412.196,813.902 1415.124,562.554 1157.698,819.974 1080.234,897.438 1071.67,906.002 1071.67,862.747 
		1071.67,753.193 1071.67,565.631 1071.67,389.144 896.003,568.947 720.336,389.144 720.336,565.631 720.336,753.193 
		720.336,862.747 720.336,906.002 711.772,897.438 634.308,819.974 376.882,562.542 379.81,813.902 710.223,1144.312 
		710.222,1144.329 379.81,813.902 128.447,810.977 385.873,1068.412 463.337,1145.876 720.336,1402.856 896.003,1223.493 
		1071.67,1402.856 1328.663,1145.876 1406.127,1068.412 1663.553,810.977 	"/>
</g>
<g id="_x38_._star">
</g>
<g id="_x37_._check">
</g>
<g id="_x36_._minus">
</g>
<g id="_x35_._plus">
</g>
<g id="_x34_._arrow-l">
</g>
<g id="_x33_._arrow-b">
</g>
<g id="_x32_._arrow-r">
</g>
<g id="_x31_._arrow-t">
</g>
</svg>
